# xmcd CD database file
#
# Track frame offsets:
#	150
#	19310
#	35138
#
# Disc length: 707 seconds
#
# Revision: 2
# Processed by: cddbd v1.4PL0 Copyright (c) Steve Scherf et al.
# Submitted via: CDex 1.40Beta8
#
DISCID=2202c103
DTITLE=The Beautiful South - The River
DYEAR=1900
DGENRE=
TTITLE0=The River
TTITLE1=Just Checkin'
TTITLE2=Valentine's Day Wank
EXTD=
EXTT0=
EXTT1=
EXTT2=
PLAYORDER=
